<svg width="18" height="16" viewBox="0 0 18 16" fill="none" xmlns="http://www.w3.org/2000/svg">
<g id="product-loading">
<path id="Vector" d="M3.75 5.375L4.29086 4.22116C4.71034 3.32629 4.92007 2.87885 5.34519 2.62693C5.77031 2.375 6.31563 2.375 7.40625 2.375H11.3438C12.4344 2.375 12.9797 2.375 13.4048 2.62693C13.8299 2.87885 14.0397 3.32629 14.4591 4.22116L15 5.375" stroke="#001F3F" stroke-width="1.125" stroke-linecap="round"/>
<path id="Vector_2" d="M3.75 8.57397V5.375H15V8.57397C15 10.9551 15 12.1456 14.2678 12.8853C13.5356 13.625 12.357 13.625 9.99997 13.625H8.75003C6.39298 13.625 5.21446 13.625 4.48223 12.8853C3.75 12.1456 3.75 10.9551 3.75 8.57397Z" stroke="#001F3F" stroke-width="1.125" stroke-linecap="round" stroke-linejoin="round"/>
<path id="Vector_3" d="M8.29688 6.09375H10.4531" stroke="#001F3F" stroke-width="1.125" stroke-linecap="round"/>
</g>
</svg>
