<svg width="14" height="15" viewBox="0 0 14 15" fill="none" xmlns="http://www.w3.org/2000/svg">
<g id="time-quarter">
<path id="Vector" d="M1.16667 8.91138C1.24995 9.16069 1.34764 9.40318 1.4587 9.63774M2.40653 11.0967C2.59093 11.311 2.78892 11.5128 2.99914 11.7005M5.25001 12.9947C4.98881 12.9105 4.73493 12.8094 4.48958 12.6927" stroke="#CA8011" stroke-width="0.875" stroke-linecap="round" stroke-linejoin="round"/>
<path id="Vector_2" d="M7 8.03638C7.48323 8.03638 7.875 7.64461 7.875 7.16138C7.875 6.67814 7.48323 6.28638 7 6.28638C6.51677 6.28638 6.125 6.67814 6.125 7.16138M7 8.03638C6.51677 8.03638 6.125 7.64461 6.125 7.16138M7 8.03638V9.49471M6.125 7.16138H3.5" stroke="#CA8011" stroke-width="0.875" stroke-linecap="round"/>
<path id="Vector_3" d="M7.00001 12.9948C10.2216 12.9948 12.8333 10.3831 12.8333 7.16146C12.8333 3.9398 10.2216 1.32812 7.00001 1.32812C3.77834 1.32812 1.16667 3.9398 1.16667 7.16146" stroke="#CA8011" stroke-width="0.875" stroke-linecap="round"/>
</g>
</svg>
